HIERARCHY
ROOT Hips
{
	OFFSET -0.001795 -0.223333 0.028219
	CHANNELS 6 Xposition Yposition Zposition Zrotation Yrotation Xrotation 
	JOINT LeftUpLeg
	{
		OFFSET 0.069520 -0.091406 -0.006815
		CHANNELS 3 Zrotation Yrotation Xrotation
		JOINT LeftLeg
		{
			OFFSET 0.034277 -0.375199 -0.004496
			CHANNELS 3 Zrotation Yrotation Xrotation
			JOINT LeftFoot
			{
				OFFSET -0.013596 -0.397961 -0.043693
				CHANNELS 3 Zrotation Yrotation Xrotation
				JOINT LeftToe
				{
					OFFSET 0.026358 -0.055791 0.119288
					CHANNELS 3 Zrotation Yrotation Xrotation
					End Site
					{
						OFFSET 0.000000 0.000000 0.000000
					}
				}
			}
		}
	}
	JOINT RightUpLeg
	{
		OFFSET -0.067670 -0.090522 -0.004320
		CHANNELS 3 Zrotation Yrotation Xrotation
		JOINT RightLeg
		{
			OFFSET -0.038290 -0.382569 -0.008850
			CHANNELS 3 Zrotation Yrotation Xrotation
			JOINT RightFoot
			{
				OFFSET 0.015774 -0.398415 -0.042312
				CHANNELS 3 Zrotation Yrotation Xrotation
				JOINT RightToe
				{
					OFFSET -0.025372 -0.048144 0.123348
					CHANNELS 3 Zrotation Yrotation Xrotation
					End Site
					{
						OFFSET 0.000000 0.000000 0.000000
					}
				}
			}
		}
	}
	JOINT Spine
	{
		OFFSET -0.002533 0.108963 -0.026696
		CHANNELS 3 Zrotation Yrotation Xrotation
		JOINT Spine1
		{
			OFFSET 0.005487 0.135180 0.001092
			CHANNELS 3 Zrotation Yrotation Xrotation
			JOINT Spine2
			{
				OFFSET 0.001457 0.052922 0.025425
				CHANNELS 3 Zrotation Yrotation Xrotation
				JOINT Neck
				{
					OFFSET -0.002778 0.213870 -0.042857
					CHANNELS 3 Zrotation Yrotation Xrotation
					JOINT Head
					{
						OFFSET 0.005152 0.064970 0.051349
						CHANNELS 3 Zrotation Yrotation Xrotation
						End Site
						{
							OFFSET 0.000000 0.000000 0.000000
						}
					}
				}
				JOINT LeftShoulder
				{
					OFFSET 0.078845 0.121749 -0.034090
					CHANNELS 3 Zrotation Yrotation Xrotation
					JOINT LeftArm
					{
						OFFSET 0.090977 0.030469 -0.008868
						CHANNELS 3 Zrotation Yrotation Xrotation
						JOINT LeftForeArm
						{
							OFFSET 0.259612 -0.012772 -0.027456
							CHANNELS 3 Zrotation Yrotation Xrotation
							JOINT LeftHand
							{
								OFFSET 0.249234 0.008986 -0.001171
								CHANNELS 3 Zrotation Yrotation Xrotation
								End Site
								{
									OFFSET 0.000000 0.000000 0.000000
								}
							}
						}
					}
				}
				JOINT RightShoulder
				{
					OFFSET -0.081759 0.118833 -0.038615
					CHANNELS 3 Zrotation Yrotation Xrotation
					JOINT RightArm
					{
						OFFSET -0.096012 0.032551 -0.009143
						CHANNELS 3 Zrotation Yrotation Xrotation
						JOINT RightForeArm
						{
							OFFSET -0.253742 -0.013329 -0.021401
							CHANNELS 3 Zrotation Yrotation Xrotation
							JOINT RightHand
							{
								OFFSET -0.255298 0.007772 -0.005559
								CHANNELS 3 Zrotation Yrotation Xrotation
								End Site
								{
									OFFSET 0.000000 0.000000 0.000000
								}
							}
						}
					}
				}
			}
		}
	}
}
MOTION
Frames: 16
Frame Time: 0.050000
0.000000 0.966841 0.000000 -0.890022 -2.283564 6.878632 -0.061632 -0.766108 -8.436683 -0.660455 0.023265 1.895667 -0.279104 2.713028 8.452926 0.000000 0.000000 0.000000 3.416701 1.291612 -10.987940 -2.991820 0.698827 5.848748 5.239726 6.881662 8.837036 0.000000 0.000000 0.000000 4.502537 -0.232770 1.131606 -1.999763 0.940852 -7.203767 -3.560650 2.646609 11.270364 9.541268 -4.141909 -19.087877 0.000000 0.000000 0.000000 -10.636875 -2.948351 0.220658 -62.635735 -4.842407 -5.682675 -5.064347 -21.631382 1.805976 0.000000 0.000000 0.000000 12.610269 -5.552000 -3.388544 69.132314 1.308693 -6.436295 1.986204 20.883324 1.192049 0.000000 0.000000 0.000000 
-0.000268 0.966289 0.000066 -1.242056 -2.151584 7.575653 0.641315 -0.763152 -8.809877 -0.969108 0.074068 1.397903 -0.277746 2.428559 7.604280 0.000000 0.000000 0.000000 3.208577 1.368246 -11.690599 -2.269554 0.598126 6.005175 5.366412 7.169940 8.858121 0.000000 0.000000 0.000000 5.042147 -0.193234 0.261164 -2.012929 0.944878 -6.784314 -4.071043 2.845903 10.604977 10.352654 -4.187161 -21.045796 0.000000 0.000000 0.000000 -10.324103 -2.281611 -0.116567 -62.646028 -4.200175 -5.983055 -5.872652 -21.818460 1.951731 0.000000 0.000000 0.000000 12.025942 -6.727734 -3.841279 70.658902 0.453741 -6.936313 2.042067 22.134662 1.298697 0.000000 0.000000 0.000000 
-0.000376 0.965634 0.000274 -0.910417 -1.902712 7.342747 0.649461 -0.735139 -8.464379 -1.299210 0.107475 1.711054 -0.614291 1.740412 7.336015 0.000000 0.000000 0.000000 3.002689 1.331000 -11.487486 -2.280411 0.624806 6.403203 5.162113 7.051921 8.402284 0.000000 0.000000 0.000000 4.965216 -0.178906 0.170974 -1.836546 0.881784 -7.410201 -4.575038 3.003585 10.969854 9.937049 -4.017734 -20.522038 0.000000 0.000000 0.000000 -10.644949 -2.275364 -0.193749 -61.993041 -3.982818 -6.090909 -5.917039 -20.634639 1.836698 0.000000 0.000000 0.000000 12.194716 -6.258388 -3.578583 70.627901 0.347768 -7.002210 2.123047 23.110577 1.405837 0.000000 0.000000 0.000000 
-0.000494 0.966671 0.000793 -1.031186 -1.902749 7.875973 0.776078 -0.788125 -9.187357 -1.415715 0.118307 1.892255 -1.005266 1.027941 7.355079 0.000000 0.000000 0.000000 3.135143 1.460002 -12.435809 -2.132712 0.605752 6.474426 5.666212 7.595995 9.244889 0.000000 0.000000 0.000000 5.012295 -0.119545 -0.644893 -1.857552 0.886588 -6.664888 -4.437162 2.577449 10.205008 9.667498 -3.833890 -20.741227 0.000000 0.000000 0.000000 -10.130650 -1.678790 -0.368431 -62.915144 -3.326954 -6.426315 -5.892913 -20.761879 1.851788 0.000000 0.000000 0.000000 11.391341 -6.509151 -3.668222 71.064972 0.260237 -7.037229 3.054463 24.158511 1.629303 0.000000 0.000000 0.000000 
-0.000506 0.966923 0.001610 -0.901364 -1.880331 7.548458 0.512430 -0.767226 -8.772618 -1.086818 0.072398 2.069789 -0.745851 1.519333 7.383163 0.000000 0.000000 0.000000 3.056615 1.417894 -12.134790 -2.276000 0.625102 6.420204 5.453168 7.302848 8.993464 0.000000 0.000000 0.000000 4.952837 -0.115540 -0.604419 -1.810679 0.868427 -6.463798 -4.476700 2.508053 10.051368 9.233923 -3.667880 -20.260209 0.000000 0.000000 0.000000 -10.702680 -1.765816 -0.383659 -62.133895 -3.639677 -6.150595 -5.846377 -20.258785 1.794676 0.000000 0.000000 0.000000 10.743317 -6.403309 -3.540995 71.636572 0.893227 -6.673019 3.350333 24.467423 1.709911 0.000000 0.000000 0.000000 
-0.000400 0.966869 0.002697 -0.743475 -1.661774 7.380713 0.141515 -0.777910 -8.678725 -1.128507 0.068391 2.454025 -0.713998 1.308897 6.619492 0.000000 0.000000 0.000000 3.035259 1.417541 -12.137812 -2.635903 0.707556 6.811936 5.647727 8.055693 8.532945 0.000000 0.000000 0.000000 5.014835 -0.112470 -0.636433 -1.894709 0.905656 -6.420680 -4.551534 2.216726 10.166751 8.975754 -3.562684 -20.136752 0.000000 0.000000 0.000000 -10.935028 -1.695780 -0.411769 -61.577899 -3.516239 -6.156819 -6.407066 -20.612708 1.934159 0.000000 0.000000 0.000000 10.398018 -6.162616 -3.404328 71.781689 1.492798 -6.337358 3.527042 25.166249 1.798199 0.000000 0.000000 0.000000 
-0.000156 0.966875 0.003688 -0.681327 -1.553593 7.140580 0.015370 -0.756056 -8.358169 -1.102807 0.069114 2.256072 -0.552617 1.792215 7.078016 0.000000 0.000000 0.000000 2.928334 1.380955 -11.896305 -2.762322 0.728332 6.817787 5.573812 8.013209 8.371127 0.000000 0.000000 0.000000 5.040642 -0.114432 -0.575975 -1.962883 0.935142 -6.282248 -4.728705 1.948216 10.026775 8.930934 -3.508438 -20.397513 0.000000 0.000000 0.000000 -11.291735 -1.816153 -0.368808 -61.399489 -3.531803 -6.102119 -6.778875 -21.028104 2.048308 0.000000 0.000000 0.000000 10.408020 -6.091530 -3.394783 71.705990 2.024944 -6.009123 3.850258 25.713393 1.901574 0.000000 0.000000 0.000000 
0.000214 0.966944 0.004459 -0.695110 -1.397612 7.154757 -0.137049 -0.770020 -8.434646 -0.932614 0.041944 2.436808 -0.658376 1.423502 6.587915 0.000000 0.000000 0.000000 2.825970 1.364843 -11.822926 -2.760330 0.724823 6.777195 5.468433 7.920590 8.194278 0.000000 0.000000 0.000000 5.079495 -0.101068 -0.752640 -2.035852 0.966507 -5.933884 -4.703428 1.597464 9.650279 8.693661 -3.385322 -20.405777 0.000000 0.000000 0.000000 -11.908090 -2.116275 -0.255995 -60.861068 -4.102125 -5.691843 -7.191064 -21.312541 2.160057 0.000000 0.000000 0.000000 10.274869 -5.690466 -3.230863 71.471350 2.427859 -5.735116 4.221002 26.112517 1.990233 0.000000 0.000000 0.000000 
0.000593 0.967173 0.005108 -0.706335 -1.318872 7.172901 -0.317725 -0.774754 -8.396064 -0.789730 0.025680 2.329189 -0.633000 1.608771 6.928992 0.000000 0.000000 0.000000 2.738787 1.347389 -11.728582 -2.684937 0.698792 6.572724 5.189420 7.186045 8.396942 0.000000 0.000000 0.000000 5.009360 -0.104823 -0.692334 -1.975823 0.943695 -6.048884 -4.686803 1.601963 9.637889 8.426597 -3.197417 -20.576720 0.000000 0.000000 0.000000 -12.325283 -2.391585 -0.173012 -60.556472 -4.918004 -5.236934 -7.276865 -22.037865 2.252537 0.000000 0.000000 0.000000 10.262261 -5.518832 -3.146320 70.951139 2.885755 -5.400172 4.779321 26.286484 2.126848 0.000000 0.000000 0.000000 
0.000930 0.967328 0.005704 -0.787381 -0.971121 7.043952 -0.385421 -0.771991 -8.331184 -0.679963 0.009222 2.372839 -0.637701 1.567375 6.765407 0.000000 0.000000 0.000000 2.773180 1.343452 -11.674850 -2.852797 0.738970 6.778692 4.842923 6.587002 8.212655 0.000000 0.000000 0.000000 4.984443 -0.112484 -0.576931 -1.821163 0.884725 -5.786779 -4.826275 1.631471 9.332659 8.572630 -3.212873 -20.736377 0.000000 0.000000 0.000000 -12.505799 -2.612726 -0.138668 -60.428338 -5.699721 -4.803246 -7.428487 -22.565503 2.323505 0.000000 0.000000 0.000000 10.311097 -5.223453 -2.990771 70.380270 3.234870 -5.073904 5.127966 26.386650 2.219401 0.000000 0.000000 0.000000 
0.001246 0.967242 0.006303 -0.944381 -0.543245 7.067339 -0.180069 -0.767119 -8.379079 -0.659423 0.007963 2.274899 -0.730665 1.481405 6.894812 0.000000 0.000000 0.000000 2.932964 1.353546 -11.680460 -2.895488 0.746573 6.804351 4.661370 6.186118 8.300577 0.000000 0.000000 0.000000 5.028402 -0.113096 -0.604707 -1.813474 0.886287 -5.612320 -4.813786 1.626059 9.052437 8.487023 -3.125827 -20.733813 0.000000 0.000000 0.000000 -12.748898 -2.709248 -0.164869 -60.248858 -6.601968 -4.301277 -7.101389 -22.833280 2.272268 0.000000 0.000000 0.000000 10.162043 -5.217309 -2.946436 70.255988 3.431239 -4.872154 5.256637 26.077146 2.223555 0.000000 0.000000 0.000000 
0.001568 0.967095 0.006844 -1.178281 -0.341888 7.288004 0.075477 -0.773913 -8.585693 -0.851253 0.034292 2.179422 -0.620180 1.624681 6.700567 0.000000 0.000000 0.000000 3.300633 1.397328 -11.855008 -3.027669 0.772464 6.877103 4.351928 5.724867 7.991769 0.000000 0.000000 0.000000 5.022121 -0.106383 -0.733198 -1.790409 0.879595 -5.727331 -4.743024 1.936765 8.978685 8.596442 -3.113455 -20.873580 0.000000 0.000000 0.000000 -12.585518 -2.710209 -0.222815 -60.427651 -7.010138 -4.110972 -6.944661 -22.992215 2.236858 0.000000 0.000000 0.000000 9.947051 -5.377932 -2.949794 70.062931 3.318801 -4.848529 5.531093 26.022429 2.297187 0.000000 0.000000 0.000000 
0.001963 0.967063 0.007470 -1.408612 -0.231901 7.535870 0.317667 -0.784264 -8.832230 -0.928396 0.049416 1.954048 -0.612511 1.751395 6.968019 0.000000 0.000000 0.000000 3.491665 1.417803 -11.933393 -3.140569 0.777785 6.693686 4.285473 5.503084 8.139906 0.000000 0.000000 0.000000 5.108834 -0.097351 -0.919256 -1.868413 0.912717 -5.815367 -4.663990 2.245617 8.897855 8.665577 -3.072246 -21.083500 0.000000 0.000000 0.000000 -12.573752 -2.409834 -0.424617 -60.417980 -7.216379 -4.006140 -6.621830 -22.689621 2.124076 0.000000 0.000000 0.000000 9.968924 -5.386230 -2.917770 69.867560 3.253951 -4.811688 5.452448 25.615717 2.254481 0.000000 0.000000 0.000000 
0.002438 0.967150 0.008330 -1.686660 -0.448789 7.746616 0.637935 -0.766024 -8.801835 -1.073955 0.077475 1.569244 -0.382485 2.277005 7.290988 0.000000 0.000000 0.000000 3.750642 1.445539 -12.027504 -3.295876 0.784060 6.421779 4.316793 5.388865 8.402076 0.000000 0.000000 0.000000 5.107111 -0.075482 -1.206422 -1.827698 0.892195 -5.761660 -4.544012 2.717171 8.716435 8.445044 -2.887954 -21.166074 0.000000 0.000000 0.000000 -12.515896 -2.052353 -0.645390 -60.489159 -7.280371 -3.973387 -6.253639 -22.231044 1.990312 0.000000 0.000000 0.000000 9.838985 -5.460154 -2.903063 69.836504 2.899608 -4.952513 5.286185 25.413867 2.211749 0.000000 0.000000 0.000000 
0.002940 0.967238 0.009522 -1.788925 -0.195214 7.848535 0.750350 -0.744414 -8.598802 -1.085652 0.091406 1.014812 -0.424761 2.314822 7.540273 0.000000 0.000000 0.000000 3.836783 1.418468 -11.795415 -3.331233 0.755009 5.937898 4.334925 5.296757 8.674965 0.000000 0.000000 0.000000 5.141009 -0.067152 -1.341926 -2.052948 0.987615 -5.844398 -4.434292 2.869238 8.802272 8.466129 -2.855132 -21.259610 0.000000 0.000000 0.000000 -12.341243 -1.563293 -0.893544 -60.548882 -6.939921 -4.178103 -5.863813 -21.984426 1.881182 0.000000 0.000000 0.000000 9.538292 -5.691107 -2.948027 69.845909 2.365139 -5.231195 5.365894 25.220948 2.221260 0.000000 0.000000 0.000000 
0.003457 0.967289 0.010778 -1.911011 -0.226149 7.930375 0.974359 -0.717257 -8.387373 -1.470179 0.144833 0.589019 -0.389560 2.555571 8.027930 0.000000 0.000000 0.000000 3.938654 1.409040 -11.683346 -3.464524 0.762052 5.746032 4.436240 5.438142 8.795696 0.000000 0.000000 0.000000 5.093278 -0.054916 -1.485718 -2.066200 0.992774 -5.942007 -4.388777 3.446211 8.740139 8.837569 -2.909320 -21.782569 0.000000 0.000000 0.000000 -12.022717 -0.993650 -1.205069 -60.913077 -6.357296 -4.540462 -5.388568 -21.540014 1.726866 0.000000 0.000000 0.000000 9.251118 -6.035268 -3.019221 70.203184 1.630256 -5.590669 4.824741 24.876671 2.100330 0.000000 0.000000 0.000000 
